<svg width="24" height="22" viewBox="0 0 24 22" fill="none" xmlns="http://www.w3.org/2000/svg">
<g id="ic:outline-apple">
<path id="Vector" d="M17.0499 18.59C16.0699 19.4608 14.9999 19.3233 13.9699 18.9108C12.8799 18.4892 11.8799 18.4708 10.7299 18.9108C9.28992 19.4792 8.52992 19.3142 7.66992 18.59C2.78992 13.9792 3.50992 6.9575 9.04992 6.70083C10.3999 6.765 11.3399 7.37917 12.1299 7.43417C13.3099 7.21417 14.4399 6.58167 15.6999 6.66417C17.2099 6.77417 18.3499 7.32417 19.0999 8.31417C15.9799 10.0283 16.7199 13.7958 19.5799 14.85C19.0099 16.225 18.2699 17.5908 17.0399 18.5992L17.0499 18.59ZM12.0299 6.64583C11.8799 4.60167 13.6899 2.915 15.7699 2.75C16.0599 5.115 13.4299 6.875 12.0299 6.64583Z" fill="#F8F8F8"/>
</g>
</svg>
