<svg width="205" height="205" viewBox="0 0 205 205" fill="none" xmlns="http://www.w3.org/2000/svg">
<g id="game-icons:truck">
<path id="Vector" d="M14.1998 48V99.0592C16.209 99.8044 17.9238 101.1 19.2718 102.532C21.367 104.757 22.8854 107.377 24.271 109.829C25.6562 112.281 26.915 114.583 28.0082 116.007C29.1026 117.431 29.647 117.6 29.7998 117.6C30.0358 117.6 30.1118 117.63 30.7438 116.88C31.377 116.129 32.1718 114.718 33.017 113.118C33.8626 111.518 34.7594 109.729 36.1498 108.08C37.5402 106.43 39.8186 104.8 42.5998 104.8C45.381 104.8 47.6598 106.43 49.0498 108.08C50.4402 109.729 51.337 111.518 52.1826 113.118C53.0282 114.718 53.8226 116.129 54.4554 116.879C55.0874 117.629 55.1634 117.599 55.3994 117.599C55.6354 117.599 55.7114 117.629 56.3434 116.879C56.9766 116.128 57.7714 114.717 58.6166 113.117C59.4622 111.517 60.359 109.728 61.7494 108.079C63.1398 106.429 65.4182 104.799 68.1994 104.799C70.9806 104.799 73.2594 106.429 74.6494 108.079C76.0398 109.728 76.9366 111.517 77.7822 113.117C78.6278 114.717 79.4222 116.128 80.055 116.878C80.687 117.628 80.763 117.598 80.999 117.598C81.235 117.598 81.311 117.628 81.943 116.878C82.5762 116.128 83.371 114.716 84.2162 113.116C85.0618 111.516 85.9586 109.728 87.349 108.078C88.7394 106.428 91.0178 104.798 93.799 104.798C96.5802 104.798 98.859 106.428 100.249 108.078C101.639 109.727 102.536 111.516 103.382 113.116C104.227 114.716 105.022 116.127 105.655 116.878C106.287 117.628 106.363 117.598 106.599 117.598C106.835 117.598 106.911 117.628 107.543 116.878C108.176 116.127 108.971 114.716 109.816 113.116C110.661 111.516 111.558 109.727 112.949 108.077C114.339 106.427 116.617 104.797 119.399 104.797C122.18 104.797 124.378 106.117 126.209 107.599C127.065 108.292 127.859 109.054 128.599 109.846V48H14.1998ZM142.2 67.7508V123.859L145.4 123.848V130.4H146.924C150.643 122.834 158.433 117.6 167.4 117.6C175.185 117.6 182.083 121.547 186.2 127.538V104.8H192.6V90.29L181.297 73.336L142.2 67.7508ZM149.617 75.5572L175.525 78.6476L185.445 92.8516V99.5456H149.617V75.5568V75.5572ZM14.1998 107.659V117.6H20.4146C19.5666 116.203 18.7886 114.762 18.0026 113.371C16.7334 111.124 15.4426 109.04 14.1998 107.659ZM42.5998 112C42.3638 112 42.2878 111.97 41.6558 112.72C41.0226 113.471 40.2278 114.882 39.3826 116.482C39.1906 116.846 38.9938 117.221 38.7914 117.6H46.4074C46.2054 117.221 46.0086 116.846 45.8166 116.482C44.971 114.882 44.1766 113.471 43.5438 112.72C42.9118 111.97 42.8358 112 42.5998 112V112ZM68.1998 112C67.9638 112 67.8878 111.97 67.2558 112.72C66.6226 113.471 65.8278 114.882 64.9826 116.482C64.7906 116.846 64.5938 117.221 64.3914 117.6H72.0074C71.8054 117.221 71.6086 116.846 71.4166 116.482C70.571 114.882 69.7766 113.471 69.1438 112.72C68.5118 111.97 68.4358 112 68.1998 112V112ZM93.7998 112C93.5638 112 93.4878 111.97 92.8558 112.72C92.2226 113.471 91.4278 114.882 90.5826 116.482C90.3906 116.846 90.1938 117.221 89.9914 117.6H97.6074C97.4054 117.221 97.2086 116.846 97.0166 116.482C96.171 114.882 95.3766 113.471 94.7438 112.72C94.1118 111.97 94.0358 112 93.7998 112V112ZM119.4 112C119.164 112 119.088 111.97 118.456 112.72C117.823 113.471 117.028 114.882 116.183 116.482C115.991 116.846 115.794 117.221 115.591 117.6H125.654C125.504 117.395 125.358 117.191 125.202 116.986C124.087 115.528 122.815 114.117 121.681 113.198C120.546 112.28 119.636 112 119.4 112ZM193.4 112V130.4H199V112H193.4ZM29.7998 124C20.785 124 13.3998 131.385 13.3998 140.4C13.3998 149.415 20.785 156.8 29.7998 156.8C38.8146 156.8 46.1998 149.415 46.1998 140.4C46.1998 131.385 38.8146 124 29.7998 124ZM71.3998 124C62.385 124 54.9998 131.385 54.9998 140.4C54.9998 149.415 62.385 156.8 71.3998 156.8C80.4146 156.8 87.7998 149.415 87.7998 140.4C87.7998 131.385 80.4146 124 71.3998 124ZM167.4 124C158.385 124 151 131.385 151 140.4C151 149.415 158.385 156.8 167.4 156.8C176.415 156.8 183.8 149.415 183.8 140.4C183.8 131.385 176.415 124 167.4 124ZM7.7998 124.8V130.4H9.3238C10.3339 128.35 11.6443 126.463 13.2118 124.8H7.7998ZM46.3878 124.8C47.9553 126.463 49.2657 128.35 50.2758 130.4H50.9238C51.9339 128.35 53.2443 126.463 54.8118 124.8H46.3878ZM87.9878 124.8C89.5553 126.463 90.8657 128.35 91.8758 130.4H93.3998V124.8H87.9878ZM138.2 131.071L100.6 131.189V143.189L138.2 143.071V131.071ZM29.7998 131.2C34.9238 131.2 38.9998 135.276 38.9998 140.4C38.9998 145.524 34.9238 149.6 29.7998 149.6C24.6758 149.6 20.5998 145.524 20.5998 140.4C20.5998 135.276 24.6758 131.2 29.7998 131.2ZM71.3998 131.2C76.5238 131.2 80.5998 135.276 80.5998 140.4C80.5998 145.524 76.5238 149.6 71.3998 149.6C66.2758 149.6 62.1998 145.524 62.1998 140.4C62.1998 135.276 66.2758 131.2 71.3998 131.2ZM167.4 131.2C172.524 131.2 176.6 135.276 176.6 140.4C176.6 145.524 172.524 149.6 167.4 149.6C162.276 149.6 158.2 145.524 158.2 140.4C158.2 135.276 162.276 131.2 167.4 131.2Z" fill="white"/>
</g>
</svg>
