<svg width="15" height="13" viewBox="0 0 15 13" fill="none" xmlns="http://www.w3.org/2000/svg">
<g clip-path="url(#clip0_776_2196)">
<path d="M5.22541 0.42763C3.72667 0.878231 2.43417 1.73349 1.53774 2.86777C0.641311 4.00206 0.188209 5.35559 0.244988 6.72955C0.301766 8.10351 0.865432 9.42548 1.85319 10.5013C2.84095 11.5771 4.20074 12.35 5.73283 12.7065C6.97493 12.9843 8.27628 12.9965 9.52502 12.7421C10.6562 12.5219 11.7021 12.0508 12.5602 11.3751C13.4532 10.6502 14.1015 9.7282 14.4352 8.70802C14.7978 7.59861 14.8623 6.43194 14.6238 5.29755H7.64884V7.80513H11.6883C11.6076 8.20507 11.4346 8.58679 11.1796 8.92743C10.9247 9.26807 10.5931 9.56064 10.2047 9.78763C9.7115 10.0705 9.15544 10.2608 8.57228 10.3462C7.98745 10.4405 7.38758 10.4405 6.80275 10.3462C6.20996 10.2401 5.6492 10.0281 5.15627 9.72365C4.36425 9.23776 3.76956 8.54748 3.45705 7.7513C3.13934 6.94021 3.13934 6.06091 3.45705 5.24982C3.6795 4.68129 4.04724 4.16364 4.53283 3.73552C5.08852 3.23659 5.79205 2.87996 6.56621 2.70474C7.34038 2.52952 8.15528 2.5425 8.9215 2.74224C9.52009 2.90141 10.0675 3.17965 10.5199 3.55474C10.9754 3.16203 11.4301 2.76831 11.884 2.37357C12.1184 2.1613 12.3738 1.95919 12.6047 1.74185C11.9139 1.1848 11.1031 0.751314 10.2188 0.466223C8.60826 -0.0405838 6.84608 -0.0542038 5.22541 0.42763Z" fill="white"/>
<path d="M5.22544 0.427635C6.84598 -0.054526 8.60816 -0.0412645 10.2188 0.465213C11.1033 0.75224 11.9137 1.18781 12.6036 1.74693C12.3692 1.96428 12.1219 2.1674 11.8829 2.37865C11.4282 2.77204 10.9739 3.16407 10.52 3.55474C10.0675 3.17965 9.52012 2.90142 8.92153 2.74224C8.15556 2.5418 7.34069 2.52808 6.56632 2.70258C5.79195 2.87708 5.08799 3.23306 4.53169 3.73146C4.0461 4.15959 3.67836 4.67723 3.45591 5.24576L1.02661 3.61568C1.89615 2.12125 3.40171 0.978128 5.22544 0.427635Z" fill="#E33629"/>
<path d="M0.382126 5.23057C0.512602 4.66971 0.729382 4.12658 1.02666 3.61572L3.45595 5.24986C3.13825 6.06096 3.13825 6.94025 3.45595 7.75135C2.64658 8.29301 1.83681 8.83739 1.02666 9.38447C0.282693 8.10104 0.0557967 6.63873 0.382126 5.23057Z" fill="#F8BD00"/>
<path d="M7.64871 5.29639H14.6237C14.8622 6.43078 14.7976 7.59744 14.435 8.70686C14.1013 9.72703 13.4531 10.6491 12.56 11.3739C11.7761 10.8437 10.9886 10.3176 10.2046 9.78748C10.5933 9.56026 10.925 9.26737 11.1799 8.92637C11.4349 8.58536 11.6077 8.20325 11.6882 7.80295H7.64871C7.64754 6.96811 7.64871 6.13225 7.64871 5.29639Z" fill="#587DBD"/>
<path d="M1.02539 9.38435C1.83555 8.84268 2.64531 8.2983 3.45469 7.75122C3.76782 8.54767 4.36337 9.23799 5.15625 9.72356C5.65072 10.0266 6.21269 10.2369 6.80625 10.3411C7.39108 10.4353 7.99095 10.4353 8.57578 10.3411C9.15894 10.2556 9.71501 10.0654 10.2082 9.78247C10.9922 10.3126 11.7797 10.8387 12.5637 11.3689C11.7057 12.045 10.6599 12.5164 9.52852 12.7369C8.27978 12.9913 6.97843 12.9791 5.73633 12.7014C4.75395 12.4741 3.83634 12.0733 3.04102 11.5243C2.19929 10.945 1.51176 10.215 1.02539 9.38435Z" fill="#319F43"/>
</g>
<defs>
<clipPath id="clip0_776_2196">
<rect width="15" height="13" fill="white"/>
</clipPath>
</defs>
</svg>
