<svg width="130" height="38" viewBox="0 0 130 38" fill="none" xmlns="http://www.w3.org/2000/svg">
<g clip-path="url(#clip0_702_1055)">
<path d="M46.4079 14.1013H74.1483L72.4899 31.111C72.414 31.8873 71.8792 32.616 70.9943 33.1486C70.1094 33.6812 68.941 33.9777 67.7269 33.9778H52.8318C51.6177 33.9777 50.4492 33.6812 49.5644 33.1486C48.6795 32.616 48.1446 31.8873 48.0688 31.111L46.4079 14.1013ZM76.9832 9.51438V12.5723H43.5754V9.51438H50.7342V7.98541C50.7342 7.1744 51.237 6.39661 52.1321 5.82314C53.0271 5.24966 54.241 4.92749 55.5068 4.92749H65.0519C66.3176 4.92749 67.5315 5.24966 68.4266 5.82314C69.3216 6.39661 69.8244 7.1744 69.8244 7.98541V9.51438H76.9832ZM55.5068 9.51438H65.0519V7.98541H55.5068V9.51438Z" fill="#093E1A"/>
<path d="M73.9178 31.0559V22.6049H77.4088C78.0415 22.6049 78.5876 22.7287 79.047 22.9763C79.5091 23.2211 79.8654 23.5636 80.1157 24.0038C80.3661 24.4412 80.4912 24.9501 80.4912 25.5306C80.4912 26.1138 80.3633 26.6241 80.1075 27.0615C79.8544 27.4961 79.4926 27.8331 79.0222 28.0725C78.5518 28.3118 77.9933 28.4315 77.3469 28.4315H75.1929V26.8222H76.9672C77.2753 26.8222 77.5326 26.7685 77.7389 26.6612C77.948 26.5539 78.1061 26.404 78.2134 26.2114C78.3207 26.0161 78.3744 25.7892 78.3744 25.5306C78.3744 25.2692 78.3207 25.0437 78.2134 24.8538C78.1061 24.6613 77.948 24.5127 77.7389 24.4082C77.5298 24.3036 77.2726 24.2514 76.9672 24.2514H75.9604V31.0559H73.9178ZM84.3319 31.1756C83.6662 31.1756 83.094 31.0394 82.6153 30.7671C82.1394 30.492 81.7722 30.1096 81.5136 29.6199C81.2577 29.1275 81.1298 28.5566 81.1298 27.9074C81.1298 27.2554 81.2577 26.6846 81.5136 26.1949C81.7722 25.7025 82.1394 25.3201 82.6153 25.0478C83.094 24.7727 83.6662 24.6351 84.3319 24.6351C84.9977 24.6351 85.5685 24.7727 86.0444 25.0478C86.5231 25.3201 86.8903 25.7025 87.1462 26.1949C87.4048 26.6846 87.5341 27.2554 87.5341 27.9074C87.5341 28.5566 87.4048 29.1275 87.1462 29.6199C86.8903 30.1096 86.5231 30.492 86.0444 30.7671C85.5685 31.0394 84.9977 31.1756 84.3319 31.1756ZM84.3443 29.6529C84.5864 29.6529 84.7913 29.5786 84.9592 29.4301C85.127 29.2815 85.2549 29.0752 85.3429 28.8111C85.4337 28.547 85.4791 28.2417 85.4791 27.895C85.4791 27.5429 85.4337 27.2348 85.3429 26.9707C85.2549 26.7066 85.127 26.5003 84.9592 26.3517C84.7913 26.2032 84.5864 26.1289 84.3443 26.1289C84.094 26.1289 83.8821 26.2032 83.7088 26.3517C83.5383 26.5003 83.4076 26.7066 83.3168 26.9707C83.2288 27.2348 83.1848 27.5429 83.1848 27.895C83.1848 28.2417 83.2288 28.547 83.3168 28.8111C83.4076 29.0752 83.5383 29.2815 83.7088 29.4301C83.8821 29.5786 84.094 29.6529 84.3443 29.6529ZM88.5677 31.0559V24.7177H90.5856V31.0559H88.5677ZM89.5787 23.979C89.2954 23.979 89.0519 23.8855 88.8483 23.6984C88.6448 23.5086 88.543 23.2803 88.543 23.0134C88.543 22.7493 88.6448 22.5238 88.8483 22.3367C89.0519 22.1469 89.2954 22.052 89.5787 22.052C89.8648 22.052 90.1083 22.1469 90.3091 22.3367C90.5127 22.5238 90.6145 22.7493 90.6145 23.0134C90.6145 23.2803 90.5127 23.5086 90.3091 23.6984C90.1083 23.8855 89.8648 23.979 89.5787 23.979ZM93.8878 27.4411V31.0559H91.8699V24.7177H93.7888V25.8813H93.8589C93.9992 25.4934 94.2385 25.1895 94.5769 24.9694C94.9153 24.7466 95.3183 24.6351 95.786 24.6351C96.2316 24.6351 96.6181 24.7355 96.9455 24.9364C97.2756 25.1344 97.5315 25.4123 97.713 25.7699C97.8973 26.1248 97.9881 26.5402 97.9854 27.0161V31.0559H95.9675V27.4122C95.9703 27.0601 95.8809 26.785 95.6993 26.587C95.5205 26.3889 95.2715 26.2898 94.9524 26.2898C94.7406 26.2898 94.5535 26.3366 94.3912 26.4301C94.2317 26.5209 94.1079 26.6516 94.0198 26.8222C93.9346 26.9927 93.8905 27.199 93.8878 27.4411ZM102.812 24.7177V26.2032H98.8137V24.7177H102.812ZM99.6514 23.1991H101.669V29.0628C101.669 29.1866 101.689 29.287 101.727 29.3641C101.768 29.4383 101.827 29.492 101.904 29.525C101.981 29.5553 102.074 29.5704 102.181 29.5704C102.258 29.5704 102.339 29.5635 102.424 29.5498C102.512 29.5332 102.578 29.5195 102.622 29.5085L102.928 30.9651C102.832 30.9926 102.695 31.027 102.519 31.0683C102.346 31.1096 102.138 31.1357 101.896 31.1467C101.423 31.1687 101.017 31.1137 100.679 30.9816C100.343 30.8468 100.086 30.6378 99.9072 30.3544C99.7312 30.0711 99.6459 29.7148 99.6514 29.2857V23.1991Z" fill="#093E1A"/>
<path d="M74.8653 20.4246V14.0863H76.8254V15.2417H76.8914C77.0069 14.8236 77.1954 14.5127 77.4567 14.3091C77.7181 14.1028 78.0221 13.9997 78.3687 13.9997C78.4622 13.9997 78.5585 14.0065 78.6575 14.0203C78.7566 14.0313 78.8487 14.0492 78.934 14.0739V15.8277C78.8377 15.7947 78.7112 15.7685 78.5544 15.7493C78.4003 15.73 78.2628 15.7204 78.1417 15.7204C77.9024 15.7204 77.6864 15.774 77.4939 15.8813C77.3041 15.9859 77.1541 16.133 77.0441 16.3229C76.9368 16.5099 76.8832 16.73 76.8832 16.9831V20.4246H74.8653ZM81.3047 20.5318C80.9003 20.5318 80.5413 20.4644 80.2276 20.3297C79.9168 20.1921 79.6706 19.9858 79.489 19.7107C79.3102 19.4328 79.2208 19.0848 79.2208 18.6667C79.2208 18.3146 79.2827 18.0175 79.4065 17.7754C79.5303 17.5333 79.7008 17.3366 79.9182 17.1853C80.1355 17.034 80.3858 16.9198 80.6692 16.8428C80.9525 16.763 81.2551 16.7094 81.577 16.6819C81.9374 16.6488 82.2276 16.6145 82.4477 16.5787C82.6678 16.5402 82.8273 16.4865 82.9264 16.4178C83.0281 16.3462 83.079 16.2458 83.079 16.1165V16.0959C83.079 15.8841 83.0061 15.7204 82.8603 15.6049C82.7145 15.4893 82.5178 15.4315 82.2702 15.4315C82.0034 15.4315 81.7888 15.4893 81.6265 15.6049C81.4642 15.7204 81.361 15.88 81.317 16.0835L79.456 16.0175C79.511 15.6324 79.6527 15.2885 79.881 14.9859C80.1121 14.6805 80.4285 14.4412 80.8301 14.2679C81.2345 14.0918 81.7201 14.0038 82.2868 14.0038C82.6911 14.0038 83.0639 14.0519 83.405 14.1482C83.7461 14.2417 84.0432 14.3793 84.2963 14.5609C84.5494 14.7397 84.7447 14.9598 84.8823 15.2211C85.0226 15.4824 85.0927 15.7809 85.0927 16.1165V20.4246H83.1946V19.5415H83.1451C83.0323 19.7561 82.8878 19.9376 82.7118 20.0862C82.5385 20.2347 82.3335 20.3462 82.0969 20.4204C81.8631 20.4947 81.599 20.5318 81.3047 20.5318ZM81.9278 19.2114C82.1451 19.2114 82.3404 19.1674 82.5137 19.0793C82.6898 18.9913 82.8301 18.8703 82.9346 18.7162C83.0391 18.5594 83.0914 18.3778 83.0914 18.1715V17.5691C83.0336 17.5993 82.9635 17.6268 82.881 17.6516C82.8012 17.6763 82.7132 17.6997 82.6169 17.7217C82.5206 17.7437 82.4215 17.763 82.3198 17.7795C82.218 17.796 82.1203 17.8111 82.0268 17.8249C81.837 17.8552 81.6747 17.9019 81.5399 17.9652C81.4078 18.0285 81.306 18.111 81.2345 18.2128C81.1657 18.3118 81.1313 18.4301 81.1313 18.5677C81.1313 18.7767 81.2056 18.9363 81.3542 19.0463C81.5055 19.1564 81.6967 19.2114 81.9278 19.2114ZM91.8601 16.0216L90.0074 16.0711C89.9881 15.9391 89.9358 15.8222 89.8505 15.7204C89.7653 15.6159 89.6539 15.5347 89.5163 15.4769C89.3815 15.4164 89.2247 15.3862 89.0459 15.3862C88.8121 15.3862 88.6126 15.4329 88.4476 15.5265C88.2852 15.62 88.2055 15.7465 88.2082 15.9061C88.2055 16.0299 88.255 16.1372 88.3568 16.228C88.4613 16.3187 88.647 16.3916 88.9138 16.4467L90.1353 16.6777C90.768 16.7988 91.2384 16.9996 91.5465 17.2802C91.8574 17.5608 92.0142 17.9322 92.0169 18.3943C92.0142 18.829 91.8849 19.2073 91.6291 19.5291C91.376 19.851 91.0293 20.1013 90.5892 20.2801C90.149 20.4562 89.6456 20.5442 89.0789 20.5442C88.1738 20.5442 87.46 20.3585 86.9373 19.9872C86.4173 19.613 86.1202 19.1123 86.046 18.4851L88.039 18.4356C88.083 18.6667 88.1972 18.8428 88.3815 18.9638C88.5658 19.0848 88.8011 19.1454 89.0872 19.1454C89.3457 19.1454 89.5562 19.0972 89.7185 19.0009C89.8808 18.9046 89.9633 18.7767 89.9661 18.6172C89.9633 18.4741 89.9001 18.36 89.7763 18.2747C89.6525 18.1866 89.4585 18.1179 89.1944 18.0684L88.0886 17.8579C87.4531 17.7424 86.9799 17.5292 86.669 17.2183C86.3582 16.9047 86.2041 16.5058 86.2069 16.0216C86.2041 15.598 86.3169 15.2362 86.5453 14.9364C86.7736 14.6338 87.0982 14.4027 87.5191 14.2431C87.94 14.0836 88.4365 14.0038 89.0088 14.0038C89.8671 14.0038 90.5438 14.184 91.039 14.5444C91.5341 14.902 91.8079 15.3944 91.8601 16.0216ZM95.0282 16.8098V20.4246H93.0104V11.9736H94.9622V15.25H95.0324C95.1754 14.8593 95.4092 14.554 95.7339 14.3339C96.0612 14.1138 96.4615 14.0038 96.9347 14.0038C97.3803 14.0038 97.7682 14.1028 98.0983 14.3009C98.4284 14.4962 98.6843 14.7727 98.8658 15.1303C99.0502 15.4879 99.1409 15.9061 99.1382 16.3848V20.4246H97.1203V16.7809C97.1231 16.4288 97.0351 16.1537 96.8563 15.9556C96.6774 15.7575 96.4257 15.6585 96.1011 15.6585C95.8893 15.6585 95.7022 15.7053 95.5399 15.7988C95.3804 15.8896 95.2552 16.0203 95.1644 16.1908C95.0764 16.3614 95.031 16.5677 95.0282 16.8098Z" fill="#093E1A"/>
<path d="M52.2905 14.3687H68.9944V21.4041H68.635C68.2544 20.5128 67.7962 19.5703 67.2606 18.5768C66.739 17.5686 66.1893 16.6919 65.6113 15.9467C65.0334 15.2015 64.5259 14.8289 64.089 14.8289L63.2432 14.7851V27.5628L63.2855 28.571C63.3278 29.0386 63.4194 29.3673 63.5603 29.5573C63.7154 29.7326 63.948 29.8422 64.2581 29.886C64.5682 29.9153 64.8501 29.9372 65.1039 29.9518C65.3576 29.9664 65.5831 29.981 65.7805 29.9956V30.3463H55.441V29.9956L56.8365 29.9299C57.2594 29.886 57.5484 29.7765 57.7034 29.6011C57.8585 29.4258 57.9571 29.097 57.9994 28.6148L58.0417 27.6067V14.7851L57.2171 14.8289C56.766 14.8289 56.2656 15.1796 55.7159 15.8809C55.1661 16.5677 54.6093 17.4444 54.0455 18.511C53.4957 19.563 53.0305 20.5274 52.6499 21.4041H52.2905V14.3687Z" fill="white"/>
</g>
<defs>
<clipPath id="clip0_702_1055">
<rect width="102" height="38" fill="white" transform="translate(21)"/>
</clipPath>
</defs>
</svg>
