<svg width="145" height="144" viewBox="0 0 145 144" fill="none" xmlns="http://www.w3.org/2000/svg">
<g id="mdi:worker">
<path id="Vector" d="M72.8 90C46.28 90 24.8 100.74 24.8 114V126H120.8V114C120.8 100.74 99.32 90 72.8 90ZM48.8 54C48.8 60.3652 51.3286 66.4697 55.8294 70.9706C60.3303 75.4714 66.4348 78 72.8 78C79.1652 78 85.2697 75.4714 89.7706 70.9706C94.2714 66.4697 96.8 60.3652 96.8 54M69.8 12C68 12 66.8 13.26 66.8 15V33H60.8V18C60.8 18 47.3 23.16 47.3 40.5C47.3 40.5 42.8 41.34 42.8 48H102.8C102.5 41.34 98.3 40.5 98.3 40.5C98.3 23.16 84.8 18 84.8 18V33H78.8V15C78.8 13.26 77.66 12 75.8 12H69.8Z" fill="white"/>
</g>
</svg>
