<svg width="17" height="17" viewBox="0 0 17 17" fill="none" xmlns="http://www.w3.org/2000/svg">
<path d="M0.290497 0.368652H16.9944V7.40408H16.635C16.2544 6.51278 15.7962 5.57034 15.2606 4.57676C14.739 3.56857 14.1893 2.69188 13.6113 1.94669C13.0334 1.20151 12.5259 0.828915 12.089 0.828915L11.2432 0.785079V13.5628L11.2855 14.571C11.3278 15.0386 11.4194 15.3673 11.5603 15.5573C11.7154 15.7326 11.948 15.8422 12.2581 15.886C12.5682 15.9153 12.8501 15.9372 13.1039 15.9518C13.3576 15.9664 13.5831 15.981 13.7805 15.9956V16.3463H3.44098V15.9956L4.8365 15.9299C5.25938 15.886 5.54835 15.7765 5.70341 15.6011C5.85847 15.4258 5.95714 15.097 5.99943 14.6148L6.04172 13.6067V0.785079L5.21709 0.828915C4.76602 0.828915 4.2656 1.17959 3.71586 1.88094C3.16611 2.56768 2.60931 3.44437 2.04546 4.51101C1.49572 5.56303 1.03054 6.52739 0.649948 7.40408H0.290497V0.368652Z" fill="white"/>
</svg>
