<svg width="219" height="149" viewBox="0 0 219 149" fill="none" xmlns="http://www.w3.org/2000/svg">
<g clip-path="url(#clip0_866_184)">
<path d="M66.6133 19.5212H131.381L127.509 61.9835C127.332 63.9217 126.083 65.7407 124.017 67.0703C121.951 68.3998 119.223 69.14 116.388 69.1401H81.6116C78.7769 69.14 76.0489 68.3998 73.9829 67.0703C71.9169 65.7407 70.6682 63.9217 70.491 61.9835L66.6133 19.5212ZM138 8.07064V15.7043H60V8.07064H76.7143V4.2538C76.7143 2.22922 77.8883 0.287564 79.978 -1.14403C82.0676 -2.57562 84.9019 -3.37988 87.8571 -3.37988H110.143C113.098 -3.37988 115.932 -2.57562 118.022 -1.14403C120.112 0.287564 121.286 2.22922 121.286 4.2538V8.07064H138ZM87.8571 8.07064H110.143V4.2538H87.8571V8.07064Z" fill="#F8F8F8"/>
<path d="M81 24.74H119V42.3355H118.182C117.316 40.1064 116.274 37.7494 115.056 35.2644C113.869 32.743 112.619 30.5504 111.304 28.6867C109.989 26.823 108.835 25.8911 107.841 25.8911L105.916 25.7815V57.7385L106.013 60.26C106.109 61.4294 106.317 62.2516 106.638 62.7267C106.991 63.1652 107.52 63.4393 108.225 63.5489C108.931 63.622 109.572 63.6768 110.149 63.7133C110.727 63.7499 111.24 63.7864 111.689 63.823V64.7H88.1671V63.823L91.3418 63.6585C92.3038 63.5489 92.9612 63.2748 93.3139 62.8363C93.6667 62.3978 93.8911 61.5755 93.9873 60.3696L94.0835 57.8481V25.7815L92.2076 25.8911C91.1814 25.8911 90.043 26.7681 88.7924 28.5222C87.5418 30.2397 86.2751 32.4323 84.9924 35.1C83.7418 37.7311 82.6835 40.143 81.8177 42.3355H81V24.74Z" fill="#093E1A"/>
<path d="M133.708 33V24.8182H135.577V26.1818H135.662C135.812 25.7095 136.067 25.3455 136.43 25.0898C136.795 24.8306 137.213 24.701 137.681 24.701C137.788 24.701 137.907 24.7063 138.038 24.717C138.173 24.7241 138.285 24.7365 138.374 24.7543V26.5281C138.292 26.4996 138.162 26.4748 137.985 26.4535C137.811 26.4286 137.642 26.4162 137.479 26.4162C137.127 26.4162 136.811 26.4925 136.531 26.6452C136.254 26.7944 136.035 27.0021 135.876 27.2685C135.716 27.5348 135.636 27.842 135.636 28.19V33H133.708ZM141.863 33.1651C141.344 33.1651 140.877 33.0728 140.462 32.8881C140.05 32.6999 139.723 32.4229 139.482 32.0572C139.244 31.6914 139.125 31.2404 139.125 30.7042C139.125 30.2425 139.21 29.8608 139.381 29.5589C139.551 29.2571 139.784 29.0156 140.078 28.8345C140.373 28.6534 140.705 28.5167 141.074 28.4244C141.447 28.3285 141.833 28.2592 142.23 28.2166C142.71 28.1669 143.099 28.1225 143.397 28.0835C143.695 28.0408 143.912 27.9769 144.047 27.8917C144.185 27.8029 144.254 27.6662 144.254 27.4815V27.4496C144.254 27.0483 144.135 26.7376 143.898 26.5174C143.66 26.2972 143.317 26.1871 142.869 26.1871C142.397 26.1871 142.023 26.2901 141.746 26.4961C141.472 26.7021 141.287 26.9453 141.192 27.2259L139.391 26.9702C139.533 26.473 139.768 26.0575 140.094 25.7237C140.421 25.3864 140.82 25.1342 141.293 24.9673C141.765 24.7969 142.287 24.7116 142.859 24.7116C143.253 24.7116 143.645 24.7578 144.036 24.8501C144.427 24.9425 144.784 25.0952 145.107 25.3082C145.43 25.5178 145.689 25.8036 145.884 26.1658C146.083 26.5281 146.183 26.9808 146.183 27.5241V33H144.329V31.8761H144.265C144.148 32.1033 143.983 32.3164 143.77 32.5153C143.56 32.7106 143.296 32.8686 142.976 32.9893C142.66 33.1065 142.289 33.1651 141.863 33.1651ZM142.363 31.7482C142.751 31.7482 143.086 31.6719 143.37 31.5192C143.654 31.3629 143.873 31.157 144.025 30.9013C144.182 30.6456 144.26 30.3668 144.26 30.065V29.1009C144.199 29.1506 144.096 29.1967 143.951 29.2393C143.809 29.282 143.649 29.3192 143.471 29.3512C143.294 29.3832 143.118 29.4116 142.944 29.4364C142.77 29.4613 142.619 29.4826 142.491 29.5004C142.204 29.5394 141.946 29.6033 141.719 29.6921C141.492 29.7809 141.312 29.9052 141.181 30.065C141.05 30.2212 140.984 30.4237 140.984 30.6722C140.984 31.0273 141.113 31.2955 141.373 31.4766C141.632 31.6577 141.962 31.7482 142.363 31.7482ZM154.588 26.9808L152.83 27.1726C152.781 26.995 152.694 26.8281 152.569 26.6719C152.449 26.5156 152.285 26.3896 152.079 26.2937C151.873 26.1978 151.621 26.1499 151.323 26.1499C150.922 26.1499 150.584 26.2369 150.311 26.4109C150.041 26.5849 149.908 26.8104 149.911 27.0874C149.908 27.3253 149.995 27.5188 150.172 27.668C150.354 27.8171 150.652 27.9396 151.067 28.0355L152.463 28.3338C153.237 28.5007 153.812 28.7653 154.189 29.1275C154.569 29.4897 154.76 29.9638 154.764 30.5497C154.76 31.0646 154.61 31.5192 154.311 31.9134C154.017 32.304 153.606 32.6094 153.081 32.8295C152.555 33.0497 151.952 33.1598 151.27 33.1598C150.268 33.1598 149.462 32.9503 148.851 32.5312C148.241 32.1087 147.877 31.521 147.759 30.7681L149.64 30.587C149.725 30.9563 149.906 31.2351 150.183 31.4233C150.46 31.6115 150.82 31.7056 151.264 31.7056C151.722 31.7056 152.09 31.6115 152.367 31.4233C152.648 31.2351 152.788 31.0025 152.788 30.7255C152.788 30.4911 152.697 30.2976 152.516 30.1449C152.339 29.9922 152.062 29.875 151.685 29.7933L150.29 29.5004C149.505 29.337 148.924 29.0618 148.548 28.6747C148.171 28.2841 147.985 27.7905 147.988 27.1939C147.985 26.6896 148.122 26.2528 148.399 25.8835C148.679 25.5107 149.068 25.223 149.565 25.0206C150.066 24.8146 150.643 24.7116 151.296 24.7116C152.255 24.7116 153.01 24.9158 153.56 25.3242C154.114 25.7326 154.457 26.2848 154.588 26.9808ZM158.282 28.206V33H156.354V22.0909H158.24V26.2085H158.336C158.527 25.7468 158.824 25.3828 159.225 25.1165C159.63 24.8466 160.145 24.7116 160.77 24.7116C161.338 24.7116 161.833 24.8306 162.256 25.0685C162.679 25.3065 163.005 25.6545 163.236 26.1126C163.471 26.5707 163.588 27.13 163.588 27.7905V33H161.659V28.0888C161.659 27.5384 161.517 27.1104 161.233 26.805C160.953 26.4961 160.559 26.3416 160.051 26.3416C159.71 26.3416 159.404 26.4162 159.135 26.5653C158.868 26.7109 158.659 26.9222 158.506 27.1992C158.357 27.4762 158.282 27.8118 158.282 28.206Z" fill="white"/>
<path d="M132.87 59V48.0909H136.961C137.799 48.0909 138.502 48.2472 139.07 48.5597C139.642 48.8722 140.073 49.3018 140.365 49.8487C140.659 50.392 140.807 51.0099 140.807 51.7024C140.807 52.402 140.659 53.0234 140.365 53.5668C140.07 54.1101 139.635 54.538 139.06 54.8505C138.484 55.1594 137.776 55.3139 136.934 55.3139H134.223V53.6893H136.668C137.158 53.6893 137.559 53.604 137.872 53.4336C138.184 53.2631 138.415 53.0288 138.564 52.7305C138.717 52.4322 138.793 52.0895 138.793 51.7024C138.793 51.3153 138.717 50.9744 138.564 50.6797C138.415 50.3849 138.182 50.1559 137.866 49.9925C137.554 49.8256 137.151 49.7422 136.657 49.7422H134.846V59H132.87ZM145.89 59.1598C145.091 59.1598 144.398 58.984 143.812 58.6325C143.226 58.2809 142.772 57.7891 142.449 57.157C142.129 56.5249 141.969 55.7862 141.969 54.9411C141.969 54.0959 142.129 53.3555 142.449 52.7198C142.772 52.0842 143.226 51.5906 143.812 51.239C144.398 50.8874 145.091 50.7116 145.89 50.7116C146.689 50.7116 147.381 50.8874 147.967 51.239C148.553 51.5906 149.006 52.0842 149.325 52.7198C149.649 53.3555 149.81 54.0959 149.81 54.9411C149.81 55.7862 149.649 56.5249 149.325 57.157C149.006 57.7891 148.553 58.2809 147.967 58.6325C147.381 58.984 146.689 59.1598 145.89 59.1598ZM145.9 57.6151C146.334 57.6151 146.696 57.4961 146.987 57.2582C147.278 57.0167 147.495 56.6935 147.637 56.2887C147.782 55.8839 147.855 55.4329 147.855 54.9357C147.855 54.435 147.782 53.9822 147.637 53.5774C147.495 53.169 147.278 52.8441 146.987 52.6026C146.696 52.3612 146.334 52.2404 145.9 52.2404C145.456 52.2404 145.087 52.3612 144.792 52.6026C144.501 52.8441 144.283 53.169 144.137 53.5774C143.995 53.9822 143.924 54.435 143.924 54.9357C143.924 55.4329 143.995 55.8839 144.137 56.2887C144.283 56.6935 144.501 57.0167 144.792 57.2582C145.087 57.4961 145.456 57.6151 145.9 57.6151ZM151.447 59V50.8182H153.375V59H151.447ZM152.416 49.657C152.111 49.657 151.848 49.5558 151.628 49.3533C151.408 49.1474 151.298 48.9006 151.298 48.6129C151.298 48.3217 151.408 48.0749 151.628 47.8725C151.848 47.6665 152.111 47.5636 152.416 47.5636C152.725 47.5636 152.988 47.6665 153.205 47.8725C153.425 48.0749 153.535 48.3217 153.535 48.6129C153.535 48.9006 153.425 49.1474 153.205 49.3533C152.988 49.5558 152.725 49.657 152.416 49.657ZM157.286 54.206V59H155.358V50.8182H157.201V52.2085H157.297C157.485 51.7504 157.785 51.3864 158.197 51.1165C158.613 50.8466 159.126 50.7116 159.737 50.7116C160.301 50.7116 160.793 50.8324 161.212 51.0739C161.635 51.3153 161.961 51.6651 162.192 52.1232C162.426 52.5813 162.542 53.1371 162.538 53.7905V59H160.61V54.0888C160.61 53.5419 160.468 53.114 160.184 52.805C159.903 52.4961 159.515 52.3416 159.017 52.3416C158.68 52.3416 158.38 52.4162 158.117 52.5653C157.858 52.7109 157.654 52.9222 157.505 53.1992C157.359 53.4762 157.286 53.8118 157.286 54.206ZM168.584 50.8182V52.3097H163.881V50.8182H168.584ZM165.042 48.858H166.97V56.5391C166.97 56.7983 167.009 56.9972 167.087 57.1357C167.169 57.2706 167.276 57.3629 167.407 57.4126C167.538 57.4624 167.684 57.4872 167.844 57.4872C167.964 57.4872 168.075 57.4783 168.174 57.4606C168.277 57.4428 168.355 57.4268 168.408 57.4126L168.733 58.9201C168.63 58.9556 168.483 58.9947 168.291 59.0373C168.103 59.0799 167.872 59.1048 167.599 59.1119C167.116 59.1261 166.681 59.0533 166.294 58.8935C165.907 58.7301 165.599 58.478 165.372 58.1371C165.148 57.7962 165.038 57.37 165.042 56.8587V48.858Z" fill="white"/>
</g>
<defs>
<clipPath id="clip0_866_184">
<rect width="219" height="149" fill="white"/>
</clipPath>
</defs>
</svg>
