<svg width="145" height="86" viewBox="0 0 145 86" fill="none" xmlns="http://www.w3.org/2000/svg">
<path id="Vector" d="M98.1194 0H78.8883C77.0973 0 75.3735 0.671632 74.0526 1.88057L52.0455 22.0295C52.0231 22.0519 52.0007 22.0967 51.9783 22.1191C48.2619 25.6115 48.3291 31.1861 51.5082 34.6562C54.3514 37.7681 60.3289 38.5964 64.0677 35.2606C64.0901 35.2383 64.1348 35.2383 64.1572 35.2159L82.045 18.8281C83.5002 17.5072 85.7838 17.5967 87.1046 19.0519C88.4479 20.5071 88.336 22.7683 86.8808 24.1116L81.0376 29.4622L113.634 55.9245C114.283 56.4618 114.865 57.0439 115.403 57.6484V14.3281L103.179 2.10445C101.858 0.761183 100.022 0 98.1194 0ZM122.589 14.3729V64.499C122.589 68.4616 125.791 71.6631 129.753 71.6631H144.081V14.3729H122.589ZM133.335 64.499C131.365 64.499 129.753 62.8871 129.753 60.917C129.753 58.9468 131.365 57.3349 133.335 57.3349C135.305 57.3349 136.917 58.9468 136.917 60.917C136.917 62.8871 135.305 64.499 133.335 64.499ZM0.799988 71.6407H15.1281C19.0908 71.6407 22.2922 68.4392 22.2922 64.4766V14.3729H0.799988V71.6407ZM11.5461 57.3349C13.5162 57.3349 15.1281 58.9468 15.1281 60.917C15.1281 62.8871 13.5162 64.499 11.5461 64.499C9.57597 64.499 7.96406 62.8871 7.96406 60.917C7.96406 58.9245 9.57597 57.3349 11.5461 57.3349ZM109.134 61.499L75.7093 34.3651L68.993 40.5218C62.3438 46.5888 52.1574 46.0068 46.2247 39.5367C40.2024 32.9547 40.6725 22.7683 47.2097 16.7684L65.5229 0H46.762C44.859 0 43.0456 0.761183 41.7023 2.10445L29.4563 14.3281V64.4542H33.5532L53.8141 82.7898C59.9483 87.7822 68.9706 86.8419 73.963 80.7077L74.0078 80.6629L78.0152 84.133C81.5749 87.0434 86.836 86.4837 89.724 82.9241L96.7537 74.2824L97.9627 75.2675C101.03 77.7525 105.552 77.3048 108.037 74.2153L110.164 71.5959C112.671 68.5064 112.201 64.0065 109.134 61.499Z" fill="white"/>
</svg>
